<svg width="1200" height="900" viewBox="0 0 1200 900" fill="none" xmlns="http://www.w3.org/2000/svg">
  <rect width="1200" height="900" rx="48" fill="#05030A"/>
  <rect width="1200" height="900" fill="url(#bg)"/>
  <circle cx="960" cy="172" r="220" fill="#9333EA" fill-opacity="0.22"/>
  <circle cx="228" cy="760" r="240" fill="#A855F7" fill-opacity="0.18"/>
  <rect x="86" y="88" width="1028" height="724" rx="36" fill="#0C0916" stroke="#2A173C" stroke-width="2"/>
  <rect x="132" y="138" width="936" height="116" rx="24" fill="#120E20"/>
  <circle cx="188" cy="196" r="16" fill="#2A173C"/>
  <circle cx="236" cy="196" r="16" fill="#3B2254"/>
  <circle cx="284" cy="196" r="16" fill="#4C2D68"/>
  <rect x="340" y="172" width="364" height="48" rx="24" fill="#171126"/>
  <circle cx="388" cy="196" r="15" stroke="#A855F7" stroke-width="6"/>
  <path d="M399 207L420 228" stroke="#A855F7" stroke-width="6" stroke-linecap="round"/>
  <rect x="744" y="172" width="120" height="48" rx="24" fill="#22163A"/>
  <rect x="884" y="172" width="138" height="48" rx="24" fill="#9333EA"/>
  <rect x="132" y="290" width="520" height="470" rx="28" fill="#100C1D" stroke="#2A173C" stroke-width="2"/>
  <rect x="694" y="290" width="374" height="212" rx="28" fill="#100C1D" stroke="#2A173C" stroke-width="2"/>
  <rect x="694" y="530" width="374" height="230" rx="28" fill="#100C1D" stroke="#2A173C" stroke-width="2"/>
  <text x="178" y="350" fill="#A1A1AA" font-family="Arial, sans-serif" font-size="30">Keyword Visibility</text>
  <text x="740" y="350" fill="#A1A1AA" font-family="Arial, sans-serif" font-size="28">Top Ranking Terms</text>
  <text x="740" y="590" fill="#A1A1AA" font-family="Arial, sans-serif" font-size="28">Technical Health</text>
  <path d="M190 640C248 614 286 602 344 592C404 582 450 506 524 466C556 448 584 434 610 396" stroke="url(#line)" stroke-width="16" stroke-linecap="round"/>
  <circle cx="190" cy="640" r="18" fill="#A855F7"/>
  <circle cx="344" cy="592" r="18" fill="#C084FC"/>
  <circle cx="524" cy="466" r="18" fill="#E9D5FF"/>
  <circle cx="610" cy="396" r="18" fill="#9333EA"/>
  <rect x="178" y="684" width="140" height="24" rx="12" fill="#22163A"/>
  <rect x="338" y="664" width="146" height="44" rx="16" fill="#2A173C"/>
  <text x="358" y="694" fill="#F5F3FF" font-family="Arial, sans-serif" font-size="28" font-weight="700">+148%</text>
  <rect x="740" y="386" width="278" height="16" rx="8" fill="#211533"/>
  <rect x="740" y="426" width="232" height="16" rx="8" fill="#211533"/>
  <rect x="740" y="466" width="198" height="16" rx="8" fill="#211533"/>
  <rect x="740" y="386" width="198" height="16" rx="8" fill="#9333EA"/>
  <rect x="740" y="426" width="176" height="16" rx="8" fill="#A855F7"/>
  <rect x="740" y="466" width="150" height="16" rx="8" fill="#C084FC"/>
  <rect x="740" y="626" width="284" height="30" rx="15" fill="#171126"/>
  <rect x="740" y="676" width="284" height="30" rx="15" fill="#171126"/>
  <rect x="740" y="726" width="284" height="30" rx="15" fill="#171126"/>
  <circle cx="770" cy="641" r="9" fill="#22C55E"/>
  <circle cx="770" cy="691" r="9" fill="#22C55E"/>
  <circle cx="770" cy="741" r="9" fill="#F59E0B"/>
  <text x="798" y="649" fill="#F5F3FF" font-family="Arial, sans-serif" font-size="20">Core Web Vitals Improved</text>
  <text x="798" y="699" fill="#F5F3FF" font-family="Arial, sans-serif" font-size="20">Schema Markup Added</text>
  <text x="798" y="749" fill="#F5F3FF" font-family="Arial, sans-serif" font-size="20">Backlink Outreach Active</text>
  <defs>
    <linearGradient id="bg" x1="108" y1="102" x2="1058" y2="795" gradientUnits="userSpaceOnUse">
      <stop stop-color="#12091D"/>
      <stop offset="1" stop-color="#08060E"/>
    </linearGradient>
    <linearGradient id="line" x1="190" y1="640" x2="610" y2="396" gradientUnits="userSpaceOnUse">
      <stop stop-color="#7E22CE"/>
      <stop offset="1" stop-color="#E9D5FF"/>
    </linearGradient>
  </defs>
</svg>
