<svg width="1200" height="900" viewBox="0 0 1200 900" fill="none" xmlns="http://www.w3.org/2000/svg">
  <rect width="1200" height="900" rx="48" fill="#04030A"/>
  <rect width="1200" height="900" fill="url(#bg)"/>
  <circle cx="236" cy="180" r="210" fill="#9333EA" fill-opacity="0.22"/>
  <circle cx="996" cy="730" r="260" fill="#A855F7" fill-opacity="0.17"/>
  <rect x="86" y="88" width="1028" height="724" rx="36" fill="#0C0916" stroke="#2A173C" stroke-width="2"/>
  <rect x="126" y="128" width="424" height="644" rx="30" fill="#100C1D" stroke="#2A173C" stroke-width="2"/>
  <rect x="582" y="128" width="492" height="282" rx="30" fill="#100C1D" stroke="#2A173C" stroke-width="2"/>
  <rect x="582" y="438" width="492" height="334" rx="30" fill="#100C1D" stroke="#2A173C" stroke-width="2"/>
  <rect x="172" y="190" width="332" height="66" rx="24" fill="#171126"/>
  <circle cx="228" cy="223" r="28" fill="#9333EA"/>
  <path d="M228 208C241 208 252 218 252 231C252 244 241 254 228 254C215 254 204 244 204 231C204 218 215 208 228 208Z" fill="#F5F3FF" fill-opacity="0.92"/>
  <rect x="280" y="205" width="154" height="16" rx="8" fill="#F5F3FF"/>
  <rect x="280" y="232" width="108" height="12" rx="6" fill="#A1A1AA"/>
  <rect x="172" y="286" width="332" height="200" rx="22" fill="url(#cardGrad)"/>
  <rect x="202" y="316" width="122" height="18" rx="9" fill="#F5F3FF" fill-opacity="0.9"/>
  <rect x="202" y="350" width="180" height="14" rx="7" fill="#E9D5FF" fill-opacity="0.7"/>
  <rect x="202" y="388" width="218" height="14" rx="7" fill="#E9D5FF" fill-opacity="0.65"/>
  <rect x="202" y="438" width="140" height="20" rx="10" fill="#F5F3FF" fill-opacity="0.88"/>
  <text x="202" y="456" fill="#1B1030" font-family="Arial, sans-serif" font-size="22" font-weight="700">12.4% Engagement</text>
  <rect x="172" y="520" width="156" height="172" rx="22" fill="#171126"/>
  <rect x="348" y="520" width="156" height="172" rx="22" fill="#171126"/>
  <text x="198" y="568" fill="#A1A1AA" font-family="Arial, sans-serif" font-size="20">Reach</text>
  <text x="372" y="568" fill="#A1A1AA" font-family="Arial, sans-serif" font-size="20">Shares</text>
  <text x="194" y="632" fill="#F5F3FF" font-family="Arial, sans-serif" font-size="38" font-weight="700">184K</text>
  <text x="368" y="632" fill="#F5F3FF" font-family="Arial, sans-serif" font-size="38" font-weight="700">9.8K</text>
  <path d="M642 342C688 302 736 274 790 266C842 258 888 270 930 304C953 322 976 340 1014 344" stroke="url(#trend)" stroke-width="14" stroke-linecap="round"/>
  <circle cx="642" cy="342" r="16" fill="#C084FC"/>
  <circle cx="790" cy="266" r="16" fill="#E9D5FF"/>
  <circle cx="930" cy="304" r="16" fill="#A855F7"/>
  <circle cx="1014" cy="344" r="16" fill="#9333EA"/>
  <text x="632" y="188" fill="#A1A1AA" font-family="Arial, sans-serif" font-size="28">Audience Growth</text>
  <text x="632" y="238" fill="#F5F3FF" font-family="Arial, sans-serif" font-size="54" font-weight="700">+287%</text>
  <rect x="632" y="500" width="392" height="52" rx="18" fill="#171126"/>
  <rect x="632" y="572" width="392" height="52" rx="18" fill="#171126"/>
  <rect x="632" y="644" width="392" height="52" rx="18" fill="#171126"/>
  <circle cx="670" cy="526" r="14" fill="#9333EA"/>
  <circle cx="670" cy="598" r="14" fill="#A855F7"/>
  <circle cx="670" cy="670" r="14" fill="#C084FC"/>
  <text x="706" y="534" fill="#F5F3FF" font-family="Arial, sans-serif" font-size="24">Content calendar aligned to campaigns</text>
  <text x="706" y="606" fill="#F5F3FF" font-family="Arial, sans-serif" font-size="24">Platform-specific creatives and reels</text>
  <text x="706" y="678" fill="#F5F3FF" font-family="Arial, sans-serif" font-size="24">Engagement reporting with fast feedback</text>
  <defs>
    <linearGradient id="bg" x1="102" y1="106" x2="1082" y2="786" gradientUnits="userSpaceOnUse">
      <stop stop-color="#12091D"/>
      <stop offset="1" stop-color="#07050D"/>
    </linearGradient>
    <linearGradient id="cardGrad" x1="172" y1="286" x2="504" y2="486" gradientUnits="userSpaceOnUse">
      <stop stop-color="#9333EA"/>
      <stop offset="1" stop-color="#F5D0FE"/>
    </linearGradient>
    <linearGradient id="trend" x1="642" y1="342" x2="1014" y2="344" gradientUnits="userSpaceOnUse">
      <stop stop-color="#7E22CE"/>
      <stop offset="1" stop-color="#E9D5FF"/>
    </linearGradient>
  </defs>
</svg>
